<svg xmlns="http://www.w3.org/2000/svg" version="1.1" xmlns:xlink="http://www.w3.org/1999/xlink" xmlns:svgjs="http://svgjs.com/svgjs" width="31" height="27"><svg width="31" height="27" viewBox="0 0 31 27" fill="none" xmlns="http://www.w3.org/2000/svg">
    <path d="M16.1714 0.578857H3.83264C3.78374 0.578857 3.74409 0.618498 3.74409 0.667398V12.899C3.74409 12.9479 3.78374 12.9875 3.83264 12.9875H16.1714C16.2203 12.9875 16.2599 12.9479 16.2599 12.899V0.667398C16.2599 0.618498 16.2203 0.578857 16.1714 0.578857Z" fill="#E1207B"></path>
    <path d="M12.4273 13.9504H0.0885407C0.039641 13.9504 0 13.9901 0 14.039V26.2706C0 26.3195 0.039641 26.3591 0.0885407 26.3591H12.4273C12.4762 26.3591 12.5158 26.3195 12.5158 26.2706V14.039C12.5158 13.9901 12.4762 13.9504 12.4273 13.9504Z" fill="#3FB8C0"></path>
    <path d="M29.9836 17.3489L21.2588 8.62413C21.2242 8.58955 21.1682 8.58955 21.1336 8.62413L12.4846 17.2732C12.45 17.3078 12.45 17.3638 12.4846 17.3984L21.2094 26.1232C21.2439 26.1578 21.3 26.1578 21.3346 26.1232L29.9836 17.4741C30.0182 17.4396 30.0182 17.3835 29.9836 17.3489Z" fill="#293C89"></path>
</svg><style>@media (prefers-color-scheme: light) { :root { filter: none; } }
</style></svg>