<svg width="175" height="507" viewBox="0 0 175 507" fill="none" xmlns="http://www.w3.org/2000/svg">
<g opacity="0.02">
<path d="M98.4475 172.835L175 92.2128L87.5 0L0 92.2128V253.5L76.5525 334.122L0 414.83L87.5 507L175 414.83V253.5L98.4475 172.835ZM87.5 23.0958L153.105 92.2128L87.5 161.372L21.855 92.2128L87.5 23.0958ZM15.3185 108.32L76.3921 172.665L15.4789 237.18L15.3185 108.32ZM21.6945 253.202L87.5 184.383L153.105 253.5L87.5 322.617L21.6945 253.202ZM87.3396 483.606L21.855 414.83L87.5 345.67L153.105 414.83L87.3396 483.606ZM159.521 398.168L98.4475 333.824L159.521 269.948V398.168Z" fill="url(#paint0_linear_151_18578)"/>
</g>
<defs>
<linearGradient id="paint0_linear_151_18578" x1="87.5" y1="0" x2="87.5" y2="507" gradientUnits="userSpaceOnUse">
<stop stop-color="#051C2C" stop-opacity="0.53"/>
<stop offset="1" stop-color="#051C2C"/>
</linearGradient>
</defs>
</svg>
