<svg width="111" height="34" viewBox="0 0 111 34" fill="none" xmlns="http://www.w3.org/2000/svg">
<path d="M39.5234 25.5407C39.5234 25.7825 39.741 26 39.9827 26H42.2307C42.4724 26 42.6899 25.7825 42.6899 25.5407V11.9805H46.3882C46.6541 11.9805 46.8474 11.7629 46.8474 11.5212V9.53914C46.8474 9.29742 46.6541 9.07988 46.3882 9.07988H35.8252C35.5593 9.07988 35.3659 9.29742 35.3659 9.53914V11.5212C35.3659 11.7629 35.5593 11.9805 35.8252 11.9805H39.5234V25.5407ZM46.3716 20.4164C46.3716 23.607 48.692 26.2659 52.0277 26.2659C53.8406 26.2659 55.2184 25.5649 56.1852 24.7431C56.4511 24.5014 56.4269 24.2355 56.2336 24.0179L55.2909 22.761C55.1217 22.5193 54.8316 22.5435 54.5657 22.761C54.0581 23.1719 53.2846 23.5828 52.1727 23.5828C50.5532 23.5828 49.4172 22.3743 49.393 20.9965H56.5478C56.7895 20.9965 57.0554 20.7789 57.0796 20.4889C57.1037 20.3197 57.1279 19.9329 57.1279 19.7637C57.1279 16.7423 54.9041 14.591 52.0035 14.591C48.692 14.591 46.3716 17.2741 46.3716 20.4164ZM49.5622 19.0144C49.7072 17.9025 50.5774 17.0807 51.931 17.0807C53.1638 17.0807 54.034 17.9267 54.0823 19.0144H49.5622ZM58.7198 26H61.2337C61.4029 26 61.5963 25.9033 61.693 25.7825L63.8684 22.4709H63.9167L65.9713 25.5407C66.1647 25.8308 66.3822 26 66.7448 26H69.0653C69.5246 26 69.6454 25.5407 69.3795 25.1782L65.923 20.2713L69.3553 15.6546C69.6454 15.292 69.5246 14.8327 69.0411 14.8327H66.6723C66.2856 14.8327 66.0438 14.9052 65.8263 15.2195L63.9167 18.1442H63.8684L62.0072 15.2195C61.7413 14.8569 61.4512 14.8327 61.0887 14.8327H58.889C58.4298 14.8327 58.2122 15.292 58.5023 15.6546L61.9105 20.3197L58.3573 25.1782C58.1156 25.5407 58.2364 26 58.7198 26ZM72.4178 22.6643C72.4178 24.598 73.0462 26.2659 75.5359 26.2659C76.6962 26.2659 78.2915 25.7583 78.6782 25.5407C78.9441 25.3957 79.065 25.1782 78.9925 24.8881L78.6782 23.4136C78.6299 23.1478 78.364 23.0027 78.0498 23.1236C77.7597 23.2203 76.8412 23.4862 76.3577 23.4862C75.8018 23.4862 75.4392 23.317 75.4392 22.5676V17.5399H78.0498C78.3398 17.5399 78.5815 17.2741 78.5815 17.0082V15.3645C78.5815 15.0503 78.3398 14.8327 78.0498 14.8327H75.4392V11.7388C75.4392 11.4487 75.2217 11.207 74.9316 11.207H72.9496C72.6837 11.207 72.4178 11.4487 72.4178 11.7388V14.8327H71.3301C71.04 14.8327 70.8225 15.0503 70.8225 15.3645V17.0082C70.8225 17.2741 71.04 17.5399 71.3301 17.5399H72.4178V22.6643ZM81.382 25.4199C81.382 25.7341 81.6238 26 81.9622 26H84.0893C84.4035 26 84.6694 25.7341 84.6694 25.4199V18.0475L90.9782 25.8308C91.0265 25.9033 91.1715 26 91.4133 26H94.048C94.5314 26 94.7248 25.4682 94.4831 25.154L87.715 17.0565L94.0238 9.95005C94.338 9.58748 94.0963 9.07988 93.637 9.07988H91.2199C91.0023 9.07988 90.8573 9.20073 90.7606 9.32159L84.6694 16.1863V9.65999C84.6694 9.34576 84.4035 9.07988 84.0893 9.07988H81.9622C81.6238 9.07988 81.382 9.34576 81.382 9.65999V25.4199ZM96.383 25.4682C96.383 25.7583 96.6489 26 96.9148 26H98.8727C99.1385 26 99.4044 25.7583 99.4044 25.4682V15.3645C99.4044 15.0503 99.1385 14.8327 98.8727 14.8327H96.9148C96.6489 14.8327 96.383 15.0503 96.383 15.3645V25.4682ZM97.8574 12.9232C98.9452 12.9232 99.7912 12.053 99.7912 10.9894C99.7912 9.92588 98.9452 9.07988 97.8574 9.07988C96.7697 9.07988 95.9479 9.92588 95.9479 10.9894C95.9479 12.053 96.7697 12.9232 97.8574 12.9232ZM103.246 22.6643C103.246 24.598 103.874 26.2659 106.364 26.2659C107.524 26.2659 109.12 25.7583 109.506 25.5407C109.772 25.3957 109.893 25.1782 109.821 24.8881L109.506 23.4136C109.458 23.1478 109.192 23.0027 108.878 23.1236C108.588 23.2203 107.669 23.4862 107.186 23.4862C106.63 23.4862 106.267 23.317 106.267 22.5676V17.5399H108.878C109.168 17.5399 109.41 17.2741 109.41 17.0082V15.3645C109.41 15.0503 109.168 14.8327 108.878 14.8327H106.267V11.7388C106.267 11.4487 106.05 11.207 105.76 11.207H103.778C103.512 11.207 103.246 11.4487 103.246 11.7388V14.8327H102.158C101.868 14.8327 101.651 15.0503 101.651 15.3645V17.0082C101.651 17.2741 101.868 17.5399 102.158 17.5399H103.246V22.6643Z" fill="#424242"/>
<path d="M16.1714 2.57886H3.83264C3.78374 2.57886 3.74409 2.6185 3.74409 2.6674V14.899C3.74409 14.9479 3.78374 14.9875 3.83264 14.9875H16.1714C16.2203 14.9875 16.2599 14.9479 16.2599 14.899V2.6674C16.2599 2.6185 16.2203 2.57886 16.1714 2.57886Z" fill="#E1207B"/>
<path d="M12.4273 15.9504H0.0885407C0.039641 15.9504 0 15.9901 0 16.039V28.2706C0 28.3195 0.039641 28.3591 0.0885407 28.3591H12.4273C12.4762 28.3591 12.5158 28.3195 12.5158 28.2706V16.039C12.5158 15.9901 12.4762 15.9504 12.4273 15.9504Z" fill="#3FB8C0"/>
<path d="M29.9836 19.3489L21.2588 10.6241C21.2242 10.5896 21.1682 10.5896 21.1336 10.6241L12.4846 19.2732C12.45 19.3078 12.45 19.3638 12.4846 19.3984L21.2094 28.1232C21.2439 28.1578 21.3 28.1578 21.3346 28.1232L29.9836 19.4741C30.0182 19.4396 30.0182 19.3835 29.9836 19.3489Z" fill="#293C89"/>
<path d="M39.5234 25.5407C39.5234 25.7825 39.741 26 39.9827 26H42.2307C42.4724 26 42.6899 25.7825 42.6899 25.5407V11.9805H46.3882C46.6541 11.9805 46.8474 11.7629 46.8474 11.5212V9.53914C46.8474 9.29742 46.6541 9.07988 46.3882 9.07988H35.8252C35.5593 9.07988 35.3659 9.29742 35.3659 9.53914V11.5212C35.3659 11.7629 35.5593 11.9805 35.8252 11.9805H39.5234V25.5407ZM46.3716 20.4164C46.3716 23.607 48.692 26.2659 52.0277 26.2659C53.8406 26.2659 55.2184 25.5649 56.1852 24.7431C56.4511 24.5014 56.4269 24.2355 56.2336 24.0179L55.2909 22.761C55.1217 22.5193 54.8316 22.5435 54.5657 22.761C54.0581 23.1719 53.2846 23.5828 52.1727 23.5828C50.5532 23.5828 49.4172 22.3743 49.393 20.9965H56.5478C56.7895 20.9965 57.0554 20.7789 57.0796 20.4889C57.1037 20.3197 57.1279 19.9329 57.1279 19.7637C57.1279 16.7423 54.9041 14.591 52.0035 14.591C48.692 14.591 46.3716 17.2741 46.3716 20.4164ZM49.5622 19.0144C49.7072 17.9025 50.5774 17.0807 51.931 17.0807C53.1638 17.0807 54.034 17.9267 54.0823 19.0144H49.5622ZM58.7198 26H61.2337C61.4029 26 61.5963 25.9033 61.693 25.7825L63.8684 22.4709H63.9167L65.9713 25.5407C66.1647 25.8308 66.3822 26 66.7448 26H69.0653C69.5246 26 69.6454 25.5407 69.3795 25.1782L65.923 20.2713L69.3553 15.6546C69.6454 15.292 69.5246 14.8327 69.0411 14.8327H66.6723C66.2856 14.8327 66.0438 14.9052 65.8263 15.2195L63.9167 18.1442H63.8684L62.0072 15.2195C61.7413 14.8569 61.4512 14.8327 61.0887 14.8327H58.889C58.4298 14.8327 58.2122 15.292 58.5023 15.6546L61.9105 20.3197L58.3573 25.1782C58.1156 25.5407 58.2364 26 58.7198 26ZM72.4178 22.6643C72.4178 24.598 73.0462 26.2659 75.5359 26.2659C76.6962 26.2659 78.2915 25.7583 78.6782 25.5407C78.9441 25.3957 79.065 25.1782 78.9925 24.8881L78.6782 23.4136C78.6299 23.1478 78.364 23.0027 78.0498 23.1236C77.7597 23.2203 76.8412 23.4862 76.3577 23.4862C75.8018 23.4862 75.4392 23.317 75.4392 22.5676V17.5399H78.0498C78.3398 17.5399 78.5815 17.2741 78.5815 17.0082V15.3645C78.5815 15.0503 78.3398 14.8327 78.0498 14.8327H75.4392V11.7388C75.4392 11.4487 75.2217 11.207 74.9316 11.207H72.9496C72.6837 11.207 72.4178 11.4487 72.4178 11.7388V14.8327H71.3301C71.04 14.8327 70.8225 15.0503 70.8225 15.3645V17.0082C70.8225 17.2741 71.04 17.5399 71.3301 17.5399H72.4178V22.6643ZM81.382 25.4199C81.382 25.7341 81.6238 26 81.9622 26H84.0893C84.4035 26 84.6694 25.7341 84.6694 25.4199V18.0475L90.9782 25.8308C91.0265 25.9033 91.1715 26 91.4133 26H94.048C94.5314 26 94.7248 25.4682 94.4831 25.154L87.715 17.0565L94.0238 9.95005C94.338 9.58748 94.0963 9.07988 93.637 9.07988H91.2199C91.0023 9.07988 90.8573 9.20073 90.7606 9.32159L84.6694 16.1863V9.65999C84.6694 9.34576 84.4035 9.07988 84.0893 9.07988H81.9622C81.6238 9.07988 81.382 9.34576 81.382 9.65999V25.4199ZM96.383 25.4682C96.383 25.7583 96.6489 26 96.9148 26H98.8727C99.1385 26 99.4044 25.7583 99.4044 25.4682V15.3645C99.4044 15.0503 99.1385 14.8327 98.8727 14.8327H96.9148C96.6489 14.8327 96.383 15.0503 96.383 15.3645V25.4682ZM97.8574 12.9232C98.9452 12.9232 99.7912 12.053 99.7912 10.9894C99.7912 9.92588 98.9452 9.07988 97.8574 9.07988C96.7697 9.07988 95.9479 9.92588 95.9479 10.9894C95.9479 12.053 96.7697 12.9232 97.8574 12.9232ZM103.246 22.6643C103.246 24.598 103.874 26.2659 106.364 26.2659C107.524 26.2659 109.12 25.7583 109.506 25.5407C109.772 25.3957 109.893 25.1782 109.821 24.8881L109.506 23.4136C109.458 23.1478 109.192 23.0027 108.878 23.1236C108.588 23.2203 107.669 23.4862 107.186 23.4862C106.63 23.4862 106.267 23.317 106.267 22.5676V17.5399H108.878C109.168 17.5399 109.41 17.2741 109.41 17.0082V15.3645C109.41 15.0503 109.168 14.8327 108.878 14.8327H106.267V11.7388C106.267 11.4487 106.05 11.207 105.76 11.207H103.778C103.512 11.207 103.246 11.4487 103.246 11.7388V14.8327H102.158C101.868 14.8327 101.651 15.0503 101.651 15.3645V17.0082C101.651 17.2741 101.868 17.5399 102.158 17.5399H103.246V22.6643Z" fill="#424242"/>
<path d="M16.1714 2.57886H3.83264C3.78374 2.57886 3.74409 2.6185 3.74409 2.6674V14.899C3.74409 14.9479 3.78374 14.9875 3.83264 14.9875H16.1714C16.2203 14.9875 16.2599 14.9479 16.2599 14.899V2.6674C16.2599 2.6185 16.2203 2.57886 16.1714 2.57886Z" fill="#E1207B"/>
<path d="M12.4273 15.9504H0.0885407C0.039641 15.9504 0 15.9901 0 16.039V28.2706C0 28.3195 0.039641 28.3591 0.0885407 28.3591H12.4273C12.4762 28.3591 12.5158 28.3195 12.5158 28.2706V16.039C12.5158 15.9901 12.4762 15.9504 12.4273 15.9504Z" fill="#3FB8C0"/>
<path d="M29.9836 19.3489L21.2588 10.6241C21.2242 10.5896 21.1682 10.5896 21.1336 10.6241L12.4846 19.2732C12.45 19.3078 12.45 19.3638 12.4846 19.3984L21.2094 28.1232C21.2439 28.1578 21.3 28.1578 21.3346 28.1232L29.9836 19.4741C30.0182 19.4396 30.0182 19.3835 29.9836 19.3489Z" fill="#293C89"/>
</svg>
